<svg id="Capa_1" data-name="Capa 1" xmlns="http://www.w3.org/2000/svg" xmlns:xlink="http://www.w3.org/1999/xlink" viewBox="0 0 1190.38 417.53"><defs><style>.cls-1{fill:none;}.cls-2{opacity:0.7;}.cls-3{clip-path:url(#clip-path);}.cls-4{fill:url(#linear-gradient);}.cls-5{fill:url(#linear-gradient-2);}.cls-6{fill:url(#linear-gradient-3);}.cls-7{fill:url(#linear-gradient-4);}.cls-8{fill:url(#linear-gradient-5);}</style><clipPath id="clip-path" transform="translate(-46.92 -17.9)"><rect class="cls-1" y="-230.35" width="998.68" height="665.79"/></clipPath><linearGradient id="linear-gradient" x1="46.92" y1="226.67" x2="1237.3" y2="226.67" gradientUnits="userSpaceOnUse"><stop offset="0" stop-color="#fff3a7"/><stop offset="0.02" stop-color="#edd783"/><stop offset="0.05" stop-color="#dab85c"/><stop offset="0.08" stop-color="#caa03c"/><stop offset="0.1" stop-color="#bf8e26"/><stop offset="0.13" stop-color="#b88419"/><stop offset="0.15" stop-color="#b68014"/><stop offset="0.23" stop-color="#c6962c"/><stop offset="0.32" stop-color="#d4aa42"/><stop offset="0.41" stop-color="#dcb64f"/><stop offset="0.49" stop-color="#dfba53"/><stop offset="0.58" stop-color="#dcb64f"/><stop offset="0.68" stop-color="#d4ab42"/><stop offset="0.77" stop-color="#c7982e"/><stop offset="0.86" stop-color="#b68014"/><stop offset="0.88" stop-color="#b88318"/><stop offset="0.91" stop-color="#be8d25"/><stop offset="0.93" stop-color="#c99d39"/><stop offset="0.95" stop-color="#d7b457"/><stop offset="0.98" stop-color="#e9d17c"/><stop offset="1" stop-color="#fff3a7"/></linearGradient><linearGradient id="linear-gradient-2" x1="619.49" y1="164.29" x2="763.27" y2="164.29" xlink:href="#linear-gradient"/><linearGradient id="linear-gradient-3" x1="712.35" y1="153.49" x2="838.17" y2="153.49" xlink:href="#linear-gradient"/><linearGradient id="linear-gradient-4" x1="281.6" y1="250.41" x2="484.32" y2="250.41" xlink:href="#linear-gradient"/><linearGradient id="linear-gradient-5" x1="172.97" y1="267.96" x2="301.34" y2="267.96" xlink:href="#linear-gradient"/></defs><g class="cls-2"><g class="cls-3"><path class="cls-4" d="M1237.3,435.44,1039.88,179.21l-26.65,5.46c-.92-1.83-1.91-3.65-3-5.49q-14.22,4.73-28.7,8.57a9.27,9.27,0,0,1-5.15.35,9.14,9.14,0,0,1-2.86-1.76,272.34,272.34,0,0,1-20.82-19.53L935.05,149l-26.48-26.65c-3.41-3.44-7-7-11.63-8.43-3.06-1-6.31-.9-9.51-1a101.86,101.86,0,0,1-33.19-6.59c-12.3-4.69-26.6-5.55-39.62-7.46-5-5.14-9.3-10.83-13.77-16.46Q786.45,64.25,772,46.08c-6.85-8.64-14.92-18.1-21.95-26.6a3.93,3.93,0,0,0-2-1.54,3.64,3.64,0,0,0-2.43.68,36.54,36.54,0,0,0-14.69,15.83c-3.27,6.84-11,11.31-15.78,17.22-3.86,4.8-7.84,9.7-13.14,12.84-3.11,1.85-6.57,3-9.64,4.93-7.48,4.65-11.69,13-15.54,20.93-2.39,4.93-6.28,9.3-9.48,13.76a192.13,192.13,0,0,1-14,18,18.54,18.54,0,0,1-4.41,3.79c-3,1.7-6.72,1.75-9.94,3.07-5.29,2.17-8.56,7.4-11.48,12.32a65.59,65.59,0,0,1-13-4.76.76.76,0,0,1,0-.15l-7.73-3.15a3.66,3.66,0,0,0-1.37-.36,3.57,3.57,0,0,0-1.43.45q-3.4,1.65-6.66,3.58c-5.17,3.06-10.29,6.75-16.26,7.38a21.68,21.68,0,0,0-4,.51,11.45,11.45,0,0,0-4.88,3.54c-3.22,3.55-6.15,7.91-10.77,9.16a18,18,0,0,0-6,2.73c-1,.81-2,1.74-3,2.51a43.21,43.21,0,0,1-5.61,3c-1.64.85-3.19,1.85-4.74,2.85L535.15,173c-5.29,3.42-12.52,1.8-18.81,2.25a41.8,41.8,0,0,1-8.37,0c-2.4-.3-4.82-1-7.19-.5a25.19,25.19,0,0,0-3.93,1.4c-5.1,1.92-10.72,1.66-16.16,1.37-1.88,1.31-4.24,2.67-6.12,4a23.54,23.54,0,0,0-5.79,5,5.22,5.22,0,0,0-1,2.12,11.89,11.89,0,0,0,0,2.53c.1,3.85-2.66,7.11-5.27,10-4.68,5.12-7.95,13.35-13.22,17.86a11.78,11.78,0,0,0-2.37,2.36,10.89,10.89,0,0,0-1,2.2,38.19,38.19,0,0,1-7.6,12.28,9.17,9.17,0,0,0-.65.83,223.28,223.28,0,0,0-37.56-9.7,32.28,32.28,0,0,1-5.69-1.26c-2.28-.81-4.33-2.13-6.56-3.06-6.81-2.84-15-2-21.12-6.14-5.58-3.84-13.45-3.26-20-4.86-4.79,5.14-11.45,9.14-17.58,12.55-3.79,2.11-7.77,3.84-11.74,5.57L300.68,237a36.43,36.43,0,0,0-6.67,3.48c-5.27,3.74-61.75,55.95-74.49,63.12-11.32,6.37-26.39,7.09-38.8,10.94-7.87,2.44-16.1,5.33-21.41,11.63a22.76,22.76,0,0,0-5.3,14.85,25.65,25.65,0,0,1-.08,5.26c-.92,4.74-5.66,7.63-10.05,9.66s-9.28,4.18-11.25,8.59A52.59,52.59,0,0,1,121.91,380l-21.76,16.1c-8.85,5.14-18.25,9.67-26.92,14.44-6,3.29-12.16,6.36-17.3,10.84a11.81,11.81,0,0,0-3.44,4.32,5,5,0,0,0,.67,5.15l-6.24,4.62Z" transform="translate(-46.92 -17.9)"/><path class="cls-5" d="M745.43,32.49l-3.61,25.23s3.54,5.13,4.39,13.94,17.06,40.09,17.06,40.09l-23.92-27.5-8.5,16.5L721,134.56l15.07,19.76-21-8.06-8.89,33.22-6.67,45.63,15.62,25.4-50.82,18-44.82,27.6L643,257.5,622.8,226.35l24.61-48.22,10.29-29.31,26.84-15,40.65-70.4Z" transform="translate(-46.92 -17.9)"/><polygon class="cls-6" points="838.17 102.91 835.15 120.02 828.11 128.58 826.09 141.91 817.03 147.2 796.4 154.24 784.82 165.32 774.76 181.93 763.68 191.99 732.48 196.52 712.35 204.07 734.49 193 756.13 187.46 757.64 174.38 775.26 158.27 790.36 155.75 798.41 150.72 819.55 133.23 823.07 124.55 833.14 115.49 838.17 102.91"/><polygon class="cls-7" points="484.31 161.58 442.03 216.41 386.09 264.06 357.71 299.62 322.07 329.54 281.6 339.24 315.58 326.28 322.05 292.19 353.61 251.63 383.56 251.63 402.98 229.47 428.88 217.17 434.54 189.58 465.3 166.9 484.31 161.58"/><polygon class="cls-8" points="301.34 196.68 296.64 222.63 289.43 240.77 272.48 254.69 236.08 282.59 213.63 318.39 172.97 339.24 210.6 309.89 211.21 268.42 234.28 251.63 251.27 251.63 272.1 237.36 284.45 226.12 284.45 207.31 288.5 208.52 301.34 196.68"/></g></g></svg>