<svg id="Layer_1" data-name="Layer 1" xmlns="http://www.w3.org/2000/svg" xmlns:xlink="http://www.w3.org/1999/xlink" viewBox="0 0 479.7 395.82"><defs><style>.cls-1{fill:url(#linear-gradient);}.cls-2{fill:url(#linear-gradient-2);}.cls-3{fill:none;}.cls-3,.cls-4{stroke:#000;stroke-linecap:round;stroke-linejoin:round;}.cls-4{fill:#279b45;}</style><linearGradient id="linear-gradient" x1="10.65" y1="331.36" x2="489.35" y2="331.36" gradientUnits="userSpaceOnUse"><stop offset="0" stop-color="#b57e10"/><stop offset="0.15" stop-color="#b57e10"/><stop offset="0.46" stop-color="#e5c35c"/><stop offset="0.61" stop-color="#f9df7b"/><stop offset="0.72" stop-color="#fff3a6"/><stop offset="0.84" stop-color="#f9df7b"/><stop offset="1" stop-color="#b57e10"/></linearGradient><linearGradient id="linear-gradient-2" x1="275.86" y1="348.4" x2="489.35" y2="348.4" xlink:href="#linear-gradient"/></defs><path class="cls-1" d="M199.35,219.16,275.86,320l50.65-66.75a9.74,9.74,0,0,1,13.65-1.86,9.64,9.64,0,0,1,1.86,1.86L489.35,447.41H10.65L183.84,219.16a9.74,9.74,0,0,1,13.65-1.86A9.64,9.64,0,0,1,199.35,219.16Z" transform="translate(-10.15 -52.09)"/><path class="cls-2" d="M275.86,320q3.13-4.14,6.28-8.27l44.68-58.62a8.65,8.65,0,0,1,12.53-1.8,9.13,9.13,0,0,1,1.71,1.8l148.29,194.3-114.69-.49Z" transform="translate(-10.15 -52.09)"/><path class="cls-3" d="M199.35,219.16,275.86,320l50.65-66.75a9.74,9.74,0,0,1,13.65-1.86,9.64,9.64,0,0,1,1.86,1.86L489.35,447.41H10.65L183.84,219.16a9.74,9.74,0,0,1,13.65-1.86A9.64,9.64,0,0,1,199.35,219.16Z" transform="translate(-10.15 -52.09)"/><line class="cls-3" x1="181.44" y1="163.22" x2="181.44" y2="0.5"/><path class="cls-4" d="M223.52,61.9H278.4L252.6,95.44,278.4,129H191.59V61.89Z" transform="translate(-10.15 -52.09)"/><line class="cls-3" x1="316.31" y1="334.59" x2="265.71" y2="267.9"/></svg>