<svg id="Capa_1" data-name="Capa 1" xmlns="http://www.w3.org/2000/svg" xmlns:xlink="http://www.w3.org/1999/xlink" viewBox="0 0 409.03 84.56"><defs><style>.cls-1{fill:#22b24b;}.cls-2{fill:#000001;}.cls-3{fill:url(#linear-gradient);}.cls-4{fill:url(#linear-gradient-2);}.cls-5{fill:url(#linear-gradient-3);}.cls-6{fill:url(#linear-gradient-4);}</style><linearGradient id="linear-gradient" x1="5.12" y1="76.28" x2="66.12" y2="76.28" gradientUnits="userSpaceOnUse"><stop offset="0" stop-color="#b47f2b"/><stop offset="0.15" stop-color="#b47f2b"/><stop offset="0.45" stop-color="#e2c062"/><stop offset="0.61" stop-color="#f8df7c"/><stop offset="0.72" stop-color="#fff4a7"/><stop offset="0.84" stop-color="#f8df7c"/><stop offset="1" stop-color="#b47f2b"/></linearGradient><linearGradient id="linear-gradient-2" x1="65.9" y1="76.28" x2="124.99" y2="76.28" xlink:href="#linear-gradient"/><linearGradient id="linear-gradient-3" x1="23.5" y1="31.41" x2="62.74" y2="31.41" xlink:href="#linear-gradient"/><linearGradient id="linear-gradient-4" x1="67.38" y1="31.41" x2="106.61" y2="31.41" xlink:href="#linear-gradient"/></defs><path class="cls-1" d="M404.07,66.53V59.19a16.32,16.32,0,0,0-4.58-8.59,16.19,16.19,0,0,0-23.55-.1,16.92,16.92,0,0,0-5,12.41,16.69,16.69,0,0,0,5,12.31,16.32,16.32,0,0,0,23.55-.1,16.32,16.32,0,0,0,4.58-8.59m10.09,20.59h-9.09v-8q-5.37,9.26-16.39,9.24a25.12,25.12,0,0,1-18.45-7.56,24.95,24.95,0,0,1,0-35.78,25.13,25.13,0,0,1,18.45-7.53q11,0,16.39,9.14V41.21h9.09Zm-93.52-53v7c0,3,2.09,5.54,4.51,7.78a16.53,16.53,0,0,0,22.62-.11,14.69,14.69,0,0,0,4.84-11.16,14.83,14.83,0,0,0-4.84-11.24,16,16,0,0,0-11.34-4.55A16.25,16.25,0,0,0,325,26.5C322.66,28.66,320.64,31.15,320.64,34.14ZM310.35,14.51h9l0,5.47v2.89a17.22,17.22,0,0,1,5.22-5.42,18.88,18.88,0,0,1,10.54-2.83,25,25,0,0,1,17.85,6.88,22.08,22.08,0,0,1,0,32.79,24.89,24.89,0,0,1-17.85,6.93q-10.57,0-15.76-8.33V87.12h-8.78V20.33Z" transform="translate(-5.12 -11.55)"/><path class="cls-2" d="M300.37,14.84V87.12h-9.1V14.84Zm-20.14,0V87.12h-9.11V14.84ZM252.06,66.53V59.19a16.32,16.32,0,0,0-4.58-8.59,16.19,16.19,0,0,0-23.55-.1,16.91,16.91,0,0,0-5,12.41,16.69,16.69,0,0,0,5,12.31,16.32,16.32,0,0,0,23.55-.1A16.32,16.32,0,0,0,252.06,66.53Zm9.09,20.59h-9.09v-8q-5.37,9.26-16.39,9.24a25.12,25.12,0,0,1-18.45-7.56,24.95,24.95,0,0,1,0-35.78,25.13,25.13,0,0,1,18.45-7.53q11,0,16.39,9.14V41.21h9.09Zm-63-72.28-19.1,27.63,31.25,44.65H199.7l-26-37.22L169,56.69V87.12h-9.08V14.84H169V41.57L187.6,14.84Z" transform="translate(-5.12 -11.55)"/><path class="cls-3" d="M37.32,89.11q7-4.15,7-12.59A19.36,19.36,0,0,0,38.5,62.26a18.89,18.89,0,0,0-13.77-5.81,18.87,18.87,0,0,0-13.82,5.81A19.44,19.44,0,0,0,5.12,76.52q0,8.45,6.94,12.59H8v7H66.12v-7Zm-9.61,0h-6c-2.54,0-4.66-1.61-6.5-3.45a12.57,12.57,0,0,1-4-9.14,12.38,12.38,0,0,1,3.88-9,13.1,13.1,0,0,1,9.57-3.86,13,13,0,0,1,9.51,3.86,12.57,12.57,0,0,1,.09,18C32.43,87.44,30.26,89.11,27.71,89.11Z" transform="translate(-5.12 -11.55)"/><path class="cls-4" d="M125,76.52a19.44,19.44,0,0,0-5.79-14.26,19.27,19.27,0,0,0-27.58,0,19.37,19.37,0,0,0-5.84,14.26q0,8.45,7,12.59H65.9v7h56.22v-7h-4.07Q125,85,125,76.52ZM108.37,89.11h-6c-2.56,0-4.72-1.67-6.63-3.6a12.57,12.57,0,0,1,.09-18,13,13,0,0,1,9.51-3.86A13.11,13.11,0,0,1,115,67.47a12.37,12.37,0,0,1,3.87,9,12.56,12.56,0,0,1-4,9.14C113,87.5,110.91,89.11,108.37,89.11Z" transform="translate(-5.12 -11.55)"/><path class="cls-5" d="M55.61,18.56h6.2v-7H26.4v7h4.15q-7.07,4.14-7,12.64a19.37,19.37,0,0,0,5.81,14.23,19.25,19.25,0,0,0,27.6,0A19.39,19.39,0,0,0,62.74,31.2Q62.74,22.71,55.61,18.56Zm-3,21.7a12.85,12.85,0,0,1-9.49,3.84,13,13,0,0,1-9.57-3.84,12.5,12.5,0,0,1,.07-18.17,12.66,12.66,0,0,1,6.63-3.53h5.66A13.18,13.18,0,0,1,56.47,31.2,12.38,12.38,0,0,1,52.63,40.26Z" transform="translate(-5.12 -11.55)"/><path class="cls-6" d="M99.56,18.56h4.16v-7H68.3v7h6.2c-4.76,2.76-7.12,7-7.12,12.64a19.35,19.35,0,0,0,5.83,14.23,19.25,19.25,0,0,0,27.6,0,19.4,19.4,0,0,0,5.8-14.23Q106.61,22.71,99.56,18.56Zm-3,21.7A13.05,13.05,0,0,1,87,44.1a12.88,12.88,0,0,1-9.49-3.84,12.58,12.58,0,0,1,.08-18.17,12.59,12.59,0,0,1,6.62-3.53h5.66a12.62,12.62,0,0,1,6.63,3.53,12.46,12.46,0,0,1,4,9.11A12.33,12.33,0,0,1,96.55,40.26Z" transform="translate(-5.12 -11.55)"/></svg>